<?xml version="1.0" encoding="UTF-8" standalone="no"?>
<!DOCTYPE svg PUBLIC "-//W3C//DTD SVG 1.1//EN"
 "http://www.w3.org/Graphics/SVG/1.1/DTD/svg11.dtd">
<!-- Generated by graphviz version 2.43.0 (0)
 -->
<!-- Title: MainAppDataflow Pages: 1 -->
<svg width="728pt" height="65pt"
 viewBox="0.00 0.00 727.80 64.80" xmlns="http://www.w3.org/2000/svg" xmlns:xlink="http://www.w3.org/1999/xlink">
<g id="graph0" class="graph" transform="scale(1 1) rotate(0) translate(14.4 50.4)">
<title>MainAppDataflow</title>
<polygon fill="white" stroke="transparent" points="-14.4,14.4 -14.4,-50.4 713.4,-50.4 713.4,14.4 -14.4,14.4"/>
<!-- camera -->
<g id="node1" class="node">
<title>camera</title>
<path fill="#eff6ff" stroke="#334155" d="M70,-36C70,-36 12,-36 12,-36 6,-36 0,-30 0,-24 0,-24 0,-12 0,-12 0,-6 6,0 12,0 12,0 70,0 70,0 76,0 82,-6 82,-12 82,-12 82,-24 82,-24 82,-30 76,-36 70,-36"/>
<text text-anchor="middle" x="41" y="-21.2" font-family="Arial" font-size="11.00">USB Camera</text>
<text text-anchor="middle" x="41" y="-9.2" font-family="Arial" font-size="11.00">/dev/video0</text>
</g>
<!-- ffmpeg -->
<g id="node2" class="node">
<title>ffmpeg</title>
<path fill="#eff6ff" stroke="#334155" d="M195,-36C195,-36 130,-36 130,-36 124,-36 118,-30 118,-24 118,-24 118,-12 118,-12 118,-6 124,0 130,0 130,0 195,0 195,0 201,0 207,-6 207,-12 207,-12 207,-24 207,-24 207,-30 201,-36 195,-36"/>
<text text-anchor="middle" x="162.5" y="-21.2" font-family="Arial" font-size="11.00">ffmpeg capture</text>
<text text-anchor="middle" x="162.5" y="-9.2" font-family="Arial" font-size="11.00">process</text>
</g>
<!-- camera&#45;&gt;ffmpeg -->
<g id="edge1" class="edge">
<title>camera&#45;&gt;ffmpeg</title>
<path fill="none" stroke="#334155" stroke-width="1.2" d="M82.12,-18C90.41,-18 99.26,-18 107.94,-18"/>
<polygon fill="#334155" stroke="#334155" stroke-width="1.2" points="107.99,-21.5 117.99,-18 107.99,-14.5 107.99,-21.5"/>
</g>
<!-- frames -->
<g id="node3" class="node">
<title>frames</title>
<path fill="#eff6ff" stroke="#334155" d="M312,-36C312,-36 255,-36 255,-36 249,-36 243,-30 243,-24 243,-24 243,-12 243,-12 243,-6 249,0 255,0 255,0 312,0 312,0 318,0 324,-6 324,-12 324,-12 324,-24 324,-24 324,-30 318,-36 312,-36"/>
<text text-anchor="middle" x="283.5" y="-15.2" font-family="Arial" font-size="11.00">JPEG frames</text>
</g>
<!-- ffmpeg&#45;&gt;frames -->
<g id="edge2" class="edge">
<title>ffmpeg&#45;&gt;frames</title>
<path fill="none" stroke="#334155" stroke-width="1.2" d="M207.14,-18C215.44,-18 224.18,-18 232.66,-18"/>
<polygon fill="#334155" stroke="#334155" stroke-width="1.2" points="232.81,-21.5 242.81,-18 232.81,-14.5 232.81,-21.5"/>
</g>
<!-- app -->
<g id="node4" class="node">
<title>app</title>
<path fill="#eff6ff" stroke="#334155" d="M467,-36C467,-36 372,-36 372,-36 366,-36 360,-30 360,-24 360,-24 360,-12 360,-12 360,-6 366,0 372,0 372,0 467,0 467,0 473,0 479,-6 479,-12 479,-12 479,-24 479,-24 479,-30 473,-36 467,-36"/>
<text text-anchor="middle" x="419.5" y="-21.2" font-family="Arial" font-size="11.00">FamilyCam main&#45;app</text>
<text text-anchor="middle" x="419.5" y="-9.2" font-family="Arial" font-size="11.00">(axum server)</text>
</g>
<!-- frames&#45;&gt;app -->
<g id="edge3" class="edge">
<title>frames&#45;&gt;app</title>
<path fill="none" stroke="#334155" stroke-width="1.2" d="M324.34,-18C332.33,-18 340.93,-18 349.58,-18"/>
<polygon fill="#334155" stroke="#334155" stroke-width="1.2" points="349.71,-21.5 359.71,-18 349.71,-14.5 349.71,-21.5"/>
</g>
<!-- stream -->
<g id="node5" class="node">
<title>stream</title>
<path fill="#eff6ff" stroke="#334155" d="M589,-36C589,-36 527,-36 527,-36 521,-36 515,-30 515,-24 515,-24 515,-12 515,-12 515,-6 521,0 527,0 527,0 589,0 589,0 595,0 601,-6 601,-12 601,-12 601,-24 601,-24 601,-30 595,-36 589,-36"/>
<text text-anchor="middle" x="558" y="-21.2" font-family="Arial" font-size="11.00">HTTP MJPEG</text>
<text text-anchor="middle" x="558" y="-9.2" font-family="Arial" font-size="11.00">/stream</text>
</g>
<!-- app&#45;&gt;stream -->
<g id="edge4" class="edge">
<title>app&#45;&gt;stream</title>
<path fill="none" stroke="#334155" stroke-width="1.2" d="M479.18,-18C487.71,-18 496.44,-18 504.83,-18"/>
<polygon fill="#334155" stroke="#334155" stroke-width="1.2" points="504.85,-21.5 514.85,-18 504.85,-14.5 504.85,-21.5"/>
</g>
<!-- browser -->
<g id="node6" class="node">
<title>browser</title>
<path fill="#eff6ff" stroke="#334155" d="M687,-36C687,-36 649,-36 649,-36 643,-36 637,-30 637,-24 637,-24 637,-12 637,-12 637,-6 643,0 649,0 649,0 687,0 687,0 693,0 699,-6 699,-12 699,-12 699,-24 699,-24 699,-30 693,-36 687,-36"/>
<text text-anchor="middle" x="668" y="-21.2" font-family="Arial" font-size="11.00">Browser</text>
<text text-anchor="middle" x="668" y="-9.2" font-family="Arial" font-size="11.00">End User</text>
</g>
<!-- stream&#45;&gt;browser -->
<g id="edge5" class="edge">
<title>stream&#45;&gt;browser</title>
<path fill="none" stroke="#334155" stroke-width="1.2" d="M601.06,-18C609.48,-18 618.3,-18 626.65,-18"/>
<polygon fill="#334155" stroke="#334155" stroke-width="1.2" points="626.91,-21.5 636.91,-18 626.91,-14.5 626.91,-21.5"/>
</g>
</g>
</svg>
