<?xml version="1.0" encoding="UTF-8" standalone="no"?>
<!DOCTYPE svg PUBLIC "-//W3C//DTD SVG 1.1//EN"
 "http://www.w3.org/Graphics/SVG/1.1/DTD/svg11.dtd">
<!-- Generated by graphviz version 2.43.0 (0)
 -->
<!-- Title: WebRTCPocDataflow Pages: 1 -->
<svg width="1067pt" height="104pt"
 viewBox="0.00 0.00 1066.80 103.80" xmlns="http://www.w3.org/2000/svg" xmlns:xlink="http://www.w3.org/1999/xlink">
<g id="graph0" class="graph" transform="scale(1 1) rotate(0) translate(14.4 89.4)">
<title>WebRTCPocDataflow</title>
<polygon fill="white" stroke="transparent" points="-14.4,14.4 -14.4,-89.4 1052.4,-89.4 1052.4,14.4 -14.4,14.4"/>
<!-- camera -->
<g id="node1" class="node">
<title>camera</title>
<path fill="#ecfdf5" stroke="#334155" d="M70,-36C70,-36 12,-36 12,-36 6,-36 0,-30 0,-24 0,-24 0,-12 0,-12 0,-6 6,0 12,0 12,0 70,0 70,0 76,0 82,-6 82,-12 82,-12 82,-24 82,-24 82,-30 76,-36 70,-36"/>
<text text-anchor="middle" x="41" y="-21.2" font-family="Arial" font-size="11.00">USB Camera</text>
<text text-anchor="middle" x="41" y="-9.2" font-family="Arial" font-size="11.00">/dev/video0</text>
</g>
<!-- publisher -->
<g id="node2" class="node">
<title>publisher</title>
<path fill="#ecfdf5" stroke="#334155" d="M228,-36C228,-36 131,-36 131,-36 125,-36 119,-30 119,-24 119,-24 119,-12 119,-12 119,-6 125,0 131,0 131,0 228,0 228,0 234,0 240,-6 240,-12 240,-12 240,-24 240,-24 240,-30 234,-36 228,-36"/>
<text text-anchor="middle" x="179.5" y="-21.2" font-family="Arial" font-size="11.00">ffmpeg publisher</text>
<text text-anchor="middle" x="179.5" y="-9.2" font-family="Arial" font-size="11.00">(v4l2 + H264 encode)</text>
</g>
<!-- camera&#45;&gt;publisher -->
<g id="edge1" class="edge">
<title>camera&#45;&gt;publisher</title>
<path fill="none" stroke="#334155" stroke-width="1.2" d="M82.22,-18C90.56,-18 99.58,-18 108.63,-18"/>
<polygon fill="#334155" stroke="#334155" stroke-width="1.2" points="108.84,-21.5 118.84,-18 108.84,-14.5 108.84,-21.5"/>
</g>
<!-- rtp -->
<g id="node3" class="node">
<title>rtp</title>
<path fill="#ecfdf5" stroke="#334155" d="M354,-36C354,-36 289,-36 289,-36 283,-36 277,-30 277,-24 277,-24 277,-12 277,-12 277,-6 283,0 289,0 289,0 354,0 354,0 360,0 366,-6 366,-12 366,-12 366,-24 366,-24 366,-30 360,-36 354,-36"/>
<text text-anchor="middle" x="321.5" y="-21.2" font-family="Arial" font-size="11.00">RTP UDP</text>
<text text-anchor="middle" x="321.5" y="-9.2" font-family="Arial" font-size="11.00">127.0.0.1:5004</text>
</g>
<!-- publisher&#45;&gt;rtp -->
<g id="edge2" class="edge">
<title>publisher&#45;&gt;rtp</title>
<path fill="none" stroke="#334155" stroke-width="1.2" d="M240.28,-18C248.94,-18 257.82,-18 266.37,-18"/>
<polygon fill="#334155" stroke="#334155" stroke-width="1.2" points="266.59,-21.5 276.59,-18 266.59,-14.5 266.59,-21.5"/>
</g>
<!-- ingest -->
<g id="node4" class="node">
<title>ingest</title>
<path fill="#ecfdf5" stroke="#334155" d="M486,-36C486,-36 415,-36 415,-36 409,-36 403,-30 403,-24 403,-24 403,-12 403,-12 403,-6 409,0 415,0 415,0 486,0 486,0 492,0 498,-6 498,-12 498,-12 498,-24 498,-24 498,-30 492,-36 486,-36"/>
<text text-anchor="middle" x="450.5" y="-21.2" font-family="Arial" font-size="11.00">webrtc&#45;rs server</text>
<text text-anchor="middle" x="450.5" y="-9.2" font-family="Arial" font-size="11.00">RTP ingest loop</text>
</g>
<!-- rtp&#45;&gt;ingest -->
<g id="edge3" class="edge">
<title>rtp&#45;&gt;ingest</title>
<path fill="none" stroke="#334155" stroke-width="1.2" d="M366.21,-18C374.66,-18 383.64,-18 392.45,-18"/>
<polygon fill="#334155" stroke="#334155" stroke-width="1.2" points="392.68,-21.5 402.68,-18 392.68,-14.5 392.68,-21.5"/>
</g>
<!-- track -->
<g id="node5" class="node">
<title>track</title>
<path fill="#ecfdf5" stroke="#334155" d="M641,-36C641,-36 547,-36 547,-36 541,-36 535,-30 535,-24 535,-24 535,-12 535,-12 535,-6 541,0 547,0 547,0 641,0 641,0 647,0 653,-6 653,-12 653,-12 653,-24 653,-24 653,-30 647,-36 641,-36"/>
<text text-anchor="middle" x="594" y="-15.2" font-family="Arial" font-size="11.00">TrackLocalStaticRTP</text>
</g>
<!-- ingest&#45;&gt;track -->
<g id="edge4" class="edge">
<title>ingest&#45;&gt;track</title>
<path fill="none" stroke="#334155" stroke-width="1.2" d="M498.22,-18C506.76,-18 515.83,-18 524.85,-18"/>
<polygon fill="#334155" stroke="#334155" stroke-width="1.2" points="524.97,-21.5 534.97,-18 524.97,-14.5 524.97,-21.5"/>
</g>
<!-- pc -->
<g id="node6" class="node">
<title>pc</title>
<path fill="#ecfdf5" stroke="#334155" d="M773,-36C773,-36 702,-36 702,-36 696,-36 690,-30 690,-24 690,-24 690,-12 690,-12 690,-6 696,0 702,0 702,0 773,0 773,0 779,0 785,-6 785,-12 785,-12 785,-24 785,-24 785,-30 779,-36 773,-36"/>
<text text-anchor="middle" x="737.5" y="-21.2" font-family="Arial" font-size="11.00">PeerConnection</text>
<text text-anchor="middle" x="737.5" y="-9.2" font-family="Arial" font-size="11.00">(DTLS/SRTP)</text>
</g>
<!-- track&#45;&gt;pc -->
<g id="edge5" class="edge">
<title>track&#45;&gt;pc</title>
<path fill="none" stroke="#334155" stroke-width="1.2" d="M653.37,-18C662.13,-18 671.14,-18 679.86,-18"/>
<polygon fill="#334155" stroke="#334155" stroke-width="1.2" points="679.92,-21.5 689.92,-18 679.92,-14.5 679.92,-21.5"/>
</g>
<!-- browser -->
<g id="node7" class="node">
<title>browser</title>
<path fill="#ecfdf5" stroke="#334155" d="M872,-75C872,-75 834,-75 834,-75 828,-75 822,-69 822,-63 822,-63 822,-51 822,-51 822,-45 828,-39 834,-39 834,-39 872,-39 872,-39 878,-39 884,-45 884,-51 884,-51 884,-63 884,-63 884,-69 878,-75 872,-75"/>
<text text-anchor="middle" x="853" y="-60.2" font-family="Arial" font-size="11.00">Browser</text>
<text text-anchor="middle" x="853" y="-48.2" font-family="Arial" font-size="11.00">End User</text>
</g>
<!-- pc&#45;&gt;browser -->
<g id="edge6" class="edge">
<title>pc&#45;&gt;browser</title>
<path fill="none" stroke="#334155" stroke-width="1.2" d="M785.32,-34.09C794.28,-37.17 803.59,-40.36 812.3,-43.36"/>
<polygon fill="#334155" stroke="#334155" stroke-width="1.2" points="811.24,-46.69 821.83,-46.63 813.51,-40.07 811.24,-46.69"/>
</g>
<!-- stun -->
<g id="node8" class="node">
<title>stun</title>
<path fill="#fef3c7" stroke="#334155" d="M1026,-40C1026,-40 954,-40 954,-40 948,-40 942,-34 942,-28 942,-28 942,-16 942,-16 942,-10 948,-4 954,-4 954,-4 1026,-4 1026,-4 1032,-4 1038,-10 1038,-16 1038,-16 1038,-28 1038,-28 1038,-34 1032,-40 1026,-40"/>
<text text-anchor="middle" x="990" y="-25.2" font-family="Arial" font-size="11.00">STUN Server</text>
<text text-anchor="middle" x="990" y="-13.2" font-family="Arial" font-size="11.00">(ICE assistance)</text>
</g>
<!-- pc&#45;&gt;stun -->
<g id="edge7" class="edge">
<title>pc&#45;&gt;stun</title>
<path fill="none" stroke="#334155" stroke-width="1.2" stroke-dasharray="5,2" d="M785.3,-16.02C797.27,-15.6 810.11,-15.21 822,-15 849.55,-14.51 856.46,-14.08 884,-15 899.58,-15.52 916.43,-16.47 931.99,-17.51"/>
<polygon fill="#334155" stroke="#334155" stroke-width="1.2" points="931.77,-21 941.99,-18.2 932.26,-14.02 931.77,-21"/>
<text text-anchor="middle" x="853" y="-18.8" font-family="Times,serif" font-size="14.00">ICE</text>
</g>
<!-- browser&#45;&gt;stun -->
<g id="edge8" class="edge">
<title>browser&#45;&gt;stun</title>
<path fill="none" stroke="#334155" stroke-width="1.2" stroke-dasharray="5,2" d="M884.3,-49.15C898.33,-45.51 915.49,-41.06 931.82,-36.83"/>
<polygon fill="#334155" stroke="#334155" stroke-width="1.2" points="933.04,-40.12 941.84,-34.23 931.28,-33.35 933.04,-40.12"/>
<text text-anchor="middle" x="913" y="-46.8" font-family="Times,serif" font-size="14.00">ICE</text>
</g>
</g>
</svg>
